<?xml version="1.0" encoding="iso-8859-1"?>
<!-- Generator: Adobe Illustrator 19.0.0, SVG Export Plug-In . SVG Version: 6.00 Build 0)  -->
<svg version="1.1" id="Layer_1" xmlns="http://www.w3.org/2000/svg" xmlns:xlink="http://www.w3.org/1999/xlink" x="0px" y="0px"
	 viewBox="0 0 297 297" style="enable-background:new 0 0 297 297;" xml:space="preserve">
<g>
	<g>
		<g>
			<g>
				<circle style="fill:#E3E5E4;" cx="148.5" cy="148.5" r="148.5"/>
			</g>
		</g>
	</g>
	<path style="fill:#929DA5;" d="M216.114,91.502L115.649,247.534l48.632,48.632c67.239-7.103,121.093-59.074,131.06-125.418
		L216.114,91.502z"/>
	<g>
		<path style="fill:#662621;" d="M138.327,226.122l103.827-32.995c3.571-1.135,5.546-4.95,4.411-8.521l-28.686-90.268
			c-1.135-3.571-4.95-5.546-8.521-4.411l-103.827,32.995c-3.571,1.135-5.546,4.95-4.411,8.521l28.686,90.268
			C130.941,225.282,134.756,227.257,138.327,226.122z"/>
	</g>
	<g>
		<path style="fill:#541D1A;" d="M246.564,184.607l-28.686-90.268c-1.135-3.571-4.95-5.546-8.521-4.411l-62.191,19.763v113.621
			l94.986-30.186C245.724,191.993,247.699,188.178,246.564,184.607z"/>
	</g>
	<g>
		
			<rect x="152.865" y="105.346" transform="matrix(0.953 -0.3029 0.3029 0.953 -31.2205 55.8634)" style="fill:#F0C082;" width="23.235" height="46.469"/>
	</g>
	<g>
		<path style="fill:#E67E22;" d="M136.761,219.857L86.187,60.711c-0.836-2.631-3.643-4.084-6.28-3.251L43.481,69.035
			c-2.632,0.837-4.087,3.648-3.251,6.28c0.837,2.631,3.646,4.084,6.28,3.251l31.66-10.061l50.574,159.146
			c0.402,1.264,1.289,2.316,2.467,2.926c0.717,0.371,1.506,0.56,2.299,0.56c0.509,0,1.021-0.078,1.515-0.234l12.143-3.859V216.55
			L136.761,219.857z"/>
		<path style="fill:#C46116;" d="M265.762,184.108c-0.837-2.63-3.643-4.083-6.28-3.251L147.167,216.55v10.493l115.344-36.655
			C265.143,189.552,266.598,186.74,265.762,184.108z"/>
	</g>
	<g>
		<circle style="fill:#32373B;" cx="134.036" cy="227.792" r="26.976"/>
	</g>
	<g>
		<circle style="fill:#484F54;" cx="134.036" cy="227.792" r="10.424"/>
	</g>
</g>
<g>
</g>
<g>
</g>
<g>
</g>
<g>
</g>
<g>
</g>
<g>
</g>
<g>
</g>
<g>
</g>
<g>
</g>
<g>
</g>
<g>
</g>
<g>
</g>
<g>
</g>
<g>
</g>
<g>
</g>
</svg>
